<svg xmlns="http://www.w3.org/2000/svg" id="Layer_1" data-name="Layer 1" viewBox="0 0 302.2 55"><defs><style>.cls-1{fill:#3bb5a4;fill-rule:evenodd}.cls-3{fill:#757575}</style></defs><path d="M83 15.4c0-4.8 7.3-4.8 7.3 0v24.9c0 5-7.4 5-7.4 0ZM44.5 44c-3 0-4.3-1.6-4.3-4.4V15.4c0-4.8 7.6-4.8 7.6 0v21.4h23.8v-4.3a5.6 5.6 0 0 0-5.4-5.9H55.4c-5 0-5-7.3 0-7.3h12A11.5 11.5 0 0 1 78.8 31v9c0 2-1.3 3.7-3 3.7H44.6Z" class="cls-1"/><path d="M85 55.9a4.3 4.3 0 1 0-4.3-4.3 4.3 4.3 0 0 0 4.3 4.3Zm10.4 0a4.3 4.3 0 1 0-4.3-4.3 4.3 4.3 0 0 0 4.3 4.3Zm-20.8 0a4.3 4.3 0 1 0-4.3-4.3 4.3 4.3 0 0 0 4.4 4.3Z" style="fill:#e72b4a" transform="translate(-25.3 -.9)"/><path d="M28.4 23.6v17.3l-2.2 2.2c-3.7 4 2 9.1 5.6 5.4l4-3.9a2.5 2.5 0 0 0 .6-1.7V23.4c0-5.4-8-5.2-8 0ZM97 0c4.6.9 4.3 8.2-.8 8.2H78.8l-2.1 2.2a4 4 0 1 1-5.5-5.8l3.5-4L77 0H97ZM0 31v8.9c0 2.4 1.5 4.3 4 4.3h16.6c2.1 0 3.7-2.2 3.7-4.3V23.4a3.7 3.7 0 0 0-4-4h-8.2C8.1 19.5 0 21.3 0 31Zm7.8 5.6v-5.2c0-2.8 3-4.5 5.6-4.5h3v9.7H7.8Z" class="cls-1"/><path d="M129.2 25.2a11.7 11.7 0 0 1 1 4.7 7.7 7.7 0 0 1-2.3 5.8 11.2 11.2 0 0 1-6.7 2.6h-.4V38l-.6-2-.1-.6h.5a9 9 0 0 0 5-1.7A4.5 4.5 0 0 0 127 30a8.8 8.8 0 0 0-1-3.7l-.1-.5.5-.2 2-.7.5-.2Zm-4.2-4.7 1.8-1.8.2-.2.2.2 1.8 1.8.2.2-.2.2-1.8 1.8-.2.2-.2-.2L125 21l-.2-.2ZM132.9 14.8h2.6v17.5h-3.1V14.8ZM159.7 29.1a.6.6 0 0 1 .3 0 .8.8 0 0 1 .2.1.5.5 0 0 1 .1.2l.1.2a.8.8 0 0 1 0 .3v.8a5.6 5.6 0 0 1 0 1 .7.7 0 0 1-.7.6h-.2a3.1 3.1 0 0 1-1.3-.3 3.2 3.2 0 0 1-1-.8 3.5 3.5 0 0 1-3 1.4h-.1a6 6 0 0 1-2.5-.7l-1.7-1a1.8 1.8 0 0 0-1-.3.6.6 0 0 0-.4.2 1.7 1.7 0 0 0-.4.5 5.1 5.1 0 0 0-.3 1 12.4 12.4 0 0 0-.2 1.6l-.1 2.2c0 1.6 0 3 .2 4.3v.5h-3.2v-.4l-.2-4.5q0-4.4 1-6.4a4.1 4.1 0 0 1 2.8-2.4q1.8-4.6 5.2-4.6a4.3 4.3 0 0 1 3.5 1.7 4.8 4.8 0 0 1 .4.5 3.8 3.8 0 0 1 .3.7 6.5 6.5 0 0 1 .3.8l.2.8a3.3 3.3 0 0 0 .6 1.5 1.2 1.2 0 0 0 .9.4Zm-5.7.3a1 1 0 0 0 .9-.2 1.4 1.4 0 0 0 .2-1 3.2 3.2 0 0 0-.3-1 1.8 1.8 0 0 0-.6-.9 1.4 1.4 0 0 0-.9-.2c-.8 0-1.4.6-2 1.9A9.6 9.6 0 0 0 153 29a2.6 2.6 0 0 0 1.1.3Z" class="cls-3"/><path d="M169.2 30.8v.4a2.5 2.5 0 0 1 0 .3 1.6 1.6 0 0 1 0 .3 1 1 0 0 1 0 .2.6.6 0 0 1-.2.2.6.6 0 0 1-.2.1.8.8 0 0 1-.3 0 4 4 0 0 1-3.5-1.4 5.7 5.7 0 0 1-4.1 1.4h-1.3a1 1 0 0 1-.9-.5 2 2 0 0 1-.3-1v-.3a2 2 0 0 1 .1-.7 1.1 1.1 0 0 1 .4-.5 1 1 0 0 1 .7-.2h1.1c1.6 0 2.5-.4 2.7-1.2a6 6 0 0 0 0-1v-2.6h.4l2-.2h.5v.5l.2 2.8a1.6 1.6 0 0 0 1.9 1.7 1 1 0 0 1 .4 0 .5.5 0 0 1 .2.2l.1.2a.7.7 0 0 1 .1.3 1.6 1.6 0 0 1 0 .3v.6Zm-10 5.2 1.8-1.7.2-.2.2.2 1.8 1.8 1.7-1.8.2-.2.2.2L167 36l.2.1-.2.2-1.8 1.8-.2.2-.2-.2-1.8-1.8-1.7 1.8-.2.2-.2-.2-1.8-1.8-.2-.2Z" class="cls-3"/><path d="M175.3 30.9a11.8 11.8 0 0 1-6.5 1.5h-.5a1 1 0 0 1-.9-.5 2 2 0 0 1-.3-1.1v-.2a1.6 1.6 0 0 1 .3-1 1 1 0 0 1 1-.4h.4a24.6 24.6 0 0 0 3.2-.2 5.2 5.2 0 0 1-1.5-3.6 4.1 4.1 0 0 1 .7-2.3 7 7 0 0 1 2-2 3.6 3.6 0 0 1 2.1-.7 4.6 4.6 0 0 1 .5 0 4.5 4.5 0 0 1 .6.1l.4.2a3.2 3.2 0 0 1 .5.2 5.1 5.1 0 0 1 2.8 4.6 5 5 0 0 1-1.5 3.4 13.7 13.7 0 0 0 2.3.2h.4a.6.6 0 0 1 .3 0 .9.9 0 0 1 .2.1.4.4 0 0 1 .1.2 1 1 0 0 1 .1.2 1 1 0 0 1 0 .3v.8a1.7 1.7 0 0 0 0 .2v1a.6.6 0 0 1-.2.2.6.6 0 0 1-.2.1.8.8 0 0 1-.2 0h-.4a12.6 12.6 0 0 1-3.2-.3 8.3 8.3 0 0 1-2.6-1Zm-4.1-14.4 1.8-1.7.2-.2.1.2 1.8 1.7 1.8-1.7.2-.2.2.2 1.8 1.8.1.1-.1.2-1.8 1.8-.2.2-.2-.2-1.8-1.8-1.7 1.8-.2.2-.2-.2-1.8-1.8-.2-.2Zm3 7.9a2.4 2.4 0 0 0-.5.6 1.2 1.2 0 0 0 0 .5 2.3 2.3 0 0 0 .6 1.3l.2.3.3.2a2.3 2.3 0 0 0 .2.2.7.7 0 0 0 .1 0l.1.1h.2l.2-.1.2-.2a2.3 2.3 0 0 0 .2-.2l.3-.3a2.3 2.3 0 0 0 .6-1.3 1.3 1.3 0 0 0 0-.4 2.2 2.2 0 0 0-.4-.5 4.5 4.5 0 0 0-.5-.5 1.5 1.5 0 0 0-.8-.4h-.2l-.1.1-.2.1-.2.2Z" class="cls-3"/><path d="M190.8 30.8v.7a1.7 1.7 0 0 1 0 .3v.2a.6.6 0 0 1-.2.2.6.6 0 0 1-.2.1.8.8 0 0 1-.3 0 4 4 0 0 1-3.5-1.4 5.7 5.7 0 0 1-4.1 1.4h-1.3a1 1 0 0 1-1-.5 2 2 0 0 1-.2-1v-.3a2 2 0 0 1 .1-.7 1.2 1.2 0 0 1 .4-.5 1 1 0 0 1 .7-.2h1.2c1.6 0 2.5-.4 2.6-1.2a5 5 0 0 0 .1-1v-2.6h.4l2-.2h.5v.5l.2 2.8a1.6 1.6 0 0 0 1.8 1.7 1 1 0 0 1 .4 0 .5.5 0 0 1 .2.2l.1.2a.7.7 0 0 1 .1.3V30.7ZM181 19.7l1.8-1.8.2-.2.2.2 1.8 1.8 1.8-1.8.2-.2.2.2 1.8 1.8.1.2-.1.2-1.8 1.7-.2.2-.2-.1L185 20l-1.7 1.7-.2.2-.2-.2-1.8-1.7-.2-.2Z" class="cls-3"/><path d="M202.8 27.7a2.3 2.3 0 0 0 .2.8 1 1 0 0 0 .5.5 2 2 0 0 0 .8.1 1.2 1.2 0 0 0 1-.4 2.6 2.6 0 0 0 .3-1.5v-2.8h.4l2-.3h.5v.5l.2 2.3a4.2 4.2 0 0 0 .2 1 2 2 0 0 0 .4.7 1.3 1.3 0 0 0 .5.4 1.9 1.9 0 0 0 .7.1h.2a.6.6 0 0 1 .3 0 .8.8 0 0 1 .2.1.4.4 0 0 1 .1.2 1 1 0 0 1 .1.2 1.2 1.2 0 0 1 0 .3 1.1 1.1 0 0 1 0 .2V30.7a5.7 5.7 0 0 1 0 1 .7.7 0 0 1-.7.6h-.2a3.6 3.6 0 0 1-3.1-1.2 3.3 3.3 0 0 1-1.3 1 4.8 4.8 0 0 1-3.5 0 3.2 3.2 0 0 1-1.3-1 4.5 4.5 0 0 1-3.4 1.4 4 4 0 0 1-3.4-1.3 5.1 5.1 0 0 1-4 1.3h-.6a1 1 0 0 1-.9-.5 2 2 0 0 1-.3-1v-.3a1.7 1.7 0 0 1 .3-1 1 1 0 0 1 .9-.4h.7c1.4 0 2.2-.5 2.4-1.4a3.5 3.5 0 0 0 0-.8 10.5 10.5 0 0 0 0-1v-1.3h.4l2-.3h.5v.5l.2 2.8a1.5 1.5 0 0 0 .5 1.1 2 2 0 0 0 1.3.4 3 3 0 0 0 .7 0 1.4 1.4 0 0 0 .6-.3 1.5 1.5 0 0 0 .3-.5 2 2 0 0 0 .2-.6 4.4 4.4 0 0 0 0-.8v-2.5h.4l2-.3h.5v.5Z" class="cls-3"/><path d="M214.2 30.8a4.7 4.7 0 0 1-3.5 1.5h-.2a1 1 0 0 1-1-.4 2 2 0 0 1-.2-1.1v-.2a1.7 1.7 0 0 1 .3-1 1 1 0 0 1 .9-.5h.2a2.2 2.2 0 0 0 1.5-1 6.8 6.8 0 0 0 .9-1.5q1.7-3.8 4.6-3.8a4.6 4.6 0 0 1 2 .4 4.3 4.3 0 0 1 1.6 1.2 5.7 5.7 0 0 1 1.3 3.7 4.8 4.8 0 0 1-1 3.2l-.3.3-.4.4a3.7 3.7 0 0 1-.9.4 4 4 0 0 1-.5.1 4 4 0 0 1-.5.1 5 5 0 0 1-.5 0 6.2 6.2 0 0 1-4.3-1.8Zm4-1.3a1.4 1.4 0 0 0 1-.3 1.3 1.3 0 0 0 .4-1V28a1.9 1.9 0 0 0 0-.3 2 2 0 0 0 0-.2l-.1-.2v-.2a2.5 2.5 0 0 0-.3-.5 1.7 1.7 0 0 0-.4-.3 1.4 1.4 0 0 0-.4-.2 2 2 0 0 0-.5 0c-.8 0-1.5.6-2 1.9a3.7 3.7 0 0 0 2.4 1.5ZM241.1 32.3c-3.3 0-5.8-.5-7.5-1.6a5.3 5.3 0 0 1-2.7-4.8 8 8 0 0 1 .8-3.3l.2-.4.4.1 2 .9.4.2-.2.4a4.7 4.7 0 0 0-.3 1 3.8 3.8 0 0 0 0 .8 3.1 3.1 0 0 0 0 .9 2.9 2.9 0 0 0 .4.8 2.7 2.7 0 0 0 .7.6 4.3 4.3 0 0 0 1 .5 8.6 8.6 0 0 0 1.2.4 12.9 12.9 0 0 0 1.6.2l2 .1a25.6 25.6 0 0 0 5-.4 4.9 4.9 0 0 0 2.5-1 1 1 0 0 0 .2-.4 2.6 2.6 0 0 0 0-.7v-.3a1.6 1.6 0 0 0 0-.2v-1.6h.5l2-.3h.4v.4l.2 2.7a2.6 2.6 0 0 0 .5 1.4 1.2 1.2 0 0 0 .5.4 2.4 2.4 0 0 0 .8 0h.2a.6.6 0 0 1 .2 0 .8.8 0 0 1 .3.1.5.5 0 0 1 0 .2l.2.2a1.2 1.2 0 0 1 0 .3v1.6a1.7 1.7 0 0 1-.1.3 1.9 1.9 0 0 1-.1.3.5.5 0 0 1-.2.1 1 1 0 0 1-.4 0 4.8 4.8 0 0 1-2.3-.4 3.9 3.9 0 0 1-1.6-1.4c-1.6 1.2-4.5 1.8-8.8 1.8Zm-3.3-11.6 1.8-1.8.2-.2.1.2 1.8 1.8 1.8-1.8.2-.2.2.2 1.8 1.8.2.2-.2.2-1.7 1.7-.2.2-.2-.2-1.8-1.8-1.8 1.8-.2.2-.2-.2L238 21l-.2-.2Z" class="cls-3"/><path d="M259.3 27.8a5 5 0 0 1-3.4-1 3.5 3.5 0 0 1-1.2-2.8V23a8 8 0 0 1 .7-1.8 5 5 0 0 1 1-1.4 3.8 3.8 0 0 1 2.8-1.2 3.9 3.9 0 0 1 1.1.1 3.7 3.7 0 0 1 1 .5q2.2 1.4 2.7 5.4v1.6c0 2.4-.6 4.1-1.8 5q-1.6 1.2-5.4 1.2h-3a1 1 0 0 1-1-.4 2 2 0 0 1-.3-1.1v-.2a1.6 1.6 0 0 1 .3-1 1 1 0 0 1 1-.5h3.1a8.6 8.6 0 0 0 3-.4 2 2 0 0 0 1.2-1h-.6a6.2 6.2 0 0 1-.6 0Zm-2.3-13 1.7-1.7.2-.2.2.2 1.8 1.8.2.2-.2.2L259 17l-.2.2-.2-.1-1.7-1.8-.2-.2Zm.7 8.9a1 1 0 0 0 .4.7 2.3 2.3 0 0 0 1.3.3 6.5 6.5 0 0 0 .8 0l.8-.2a10 10 0 0 0-.3-1 4.5 4.5 0 0 0-.3-.8 2.9 2.9 0 0 0-.3-.5 1.9 1.9 0 0 0-.3-.3 1 1 0 0 0-.3-.2 1 1 0 0 0-.3 0 1.1 1.1 0 0 0-.8.2 2.2 2.2 0 0 0-.5 1 1.4 1.4 0 0 0-.1.3v.2a1.7 1.7 0 0 0 0 .3ZM272.5 30.8a4.3 4.3 0 0 1 0 1 .7.7 0 0 1-.7.6h-.3a5 5 0 0 1-3.9-1.5 6.3 6.3 0 0 1-1.3-4.3V14.8h3.1v11.7a3.1 3.1 0 0 0 .5 2 2 2 0 0 0 1.7.6h.2a.6.6 0 0 1 .3 0l.1.2a.4.4 0 0 1 .2.1V30.7Z" class="cls-3"/><path d="M272.5 32.3h-.9a1 1 0 0 1-.9-.4 2 2 0 0 1-.3-1.1v-.2a1.6 1.6 0 0 1 .3-1 1 1 0 0 1 1-.5h.8a5.7 5.7 0 0 0 2.4-.3c.6-.3.8-1 .8-2.1a12.8 12.8 0 0 0-.4-3.1l-.1-.5.5-.1 2-.5.4-.1.1.4a13 13 0 0 1 .7 3.9q0 3.2-2 4.6a4 4 0 0 1-.8.5 5 5 0 0 1-1 .3 10.3 10.3 0 0 1-1.1.2h-1.5Zm-1.3 3.7 1.8-1.7.2-.2.2.2 1.8 1.7 1.7-1.7.2-.2.2.2 1.8 1.8.2.1-.2.2-1.8 1.8-.2.2-.1-.2-1.8-1.8-1.8 1.8-.2.2-.2-.2-1.8-1.8-.1-.2ZM289 25.2a11.7 11.7 0 0 1 1.1 4.7 7.7 7.7 0 0 1-2.2 5.8 11.2 11.2 0 0 1-6.7 2.6h-.5V38l-.6-2-.1-.6h.6a9 9 0 0 0 4.9-1.7A4.4 4.4 0 0 0 287 30a8.8 8.8 0 0 0-.9-3.7l-.2-.5.5-.2 2-.7.5-.2ZM292.2 28.8a14.4 14.4 0 0 0 2.8.3c2.7 0 4-.6 4-1.7a4 4 0 0 0-1.2-2.4 16.9 16.9 0 0 0-3.6-3l-.5-.2.3-.4 1.2-1.9.3-.4.4.3q6.3 3.7 6.3 8a5 5 0 0 1-.3 1.8 4 4 0 0 1-1 1.4 5 5 0 0 1-1.4 1 8 8 0 0 1-2 .6 14 14 0 0 1-2.4.2 15 15 0 0 1-3.2-.3l-.4-.1v-3.3Z" class="cls-3"/></svg>