<svg xmlns="http://www.w3.org/2000/svg" id="Layer_1" data-name="Layer 1" viewBox="0 0 257.3 55"><defs><linearGradient id="linear-gradient" x1="-114.9" x2="-114.9" y1="435.4" y2="380.4" gradientTransform="matrix(27 0 0 -29 3172.5 12628.1)" gradientUnits="userSpaceOnUse"><stop offset="0" stop-color="#98c221"/><stop offset=".6" stop-color="#5db130"/><stop offset="1" stop-color="#009f64"/></linearGradient><style>.cls-4{fill:#757575}</style></defs><path d="m95.4 18.7.2.2v.6l-.4 2.8a86.6 86.6 0 0 1-3.4 17.3 18.4 18.4 0 0 1-1.5 3.6l-2.1 3.4-2.8 2.8a19.8 19.8 0 0 1-3 2.5 22.8 22.8 0 0 1-6 2.7 21.1 21.1 0 0 1-12.4 0 22.9 22.9 0 0 1-6-2.7 20.3 20.3 0 0 1-8.4-9.7l-1.2-2.6-1-2.9-.7-2.8-.6-2.9-1.5-9.9-.2-1.9v-.5l.4-.6a23.8 23.8 0 0 1 5.3-1.9l1.9-.4 2-.4 2-.3 2-.2h.5l.5-1.1.4-1.2.6-1.1.3-1.1V10c1-1.9 1.7-4.2 3.5-6A7.4 7.4 0 0 1 70 .4a8.4 8.4 0 0 1 6 3.2l1.4 2.9 1.3 2.8 1.4 2.9 1.3 2.8h.5l2.1.2 2 .2 2 .4 2 .5a15 15 0 0 1 5.2 2.1Zm-19-4-.4-.5-.3-1.6-.6-1.3-.6-1.5-.7-1.3-1-1.7A4.2 4.2 0 0 0 70 5.2a4.2 4.2 0 0 0-2.8 1.6l-1 1.5-.6 1.5L65 11l-.7 1.5-.6 1.4-.2.8Z" style="fill:url(#linear-gradient);fill-rule:evenodd" transform="translate(-44.4 -.5)"/><path d="M130.1 32V9.6a4.2 4.2 0 0 1 7.4-2.5 5.5 5.5 0 0 1 1.2 3.3v20.8a5 5 0 0 1-1.4 3.4c-2.4 2.9-7.2.8-7.2-2.6Zm25.2 4.5V13.8l.6-1.7a4.3 4.3 0 0 1 6.1-1.5c1.9 1.3 1.9 3.4 1.9 5.6v7.4l.2 4v4.2l.2 4 .5.2h3.3c2.2 0 5 0 6 .6a4.6 4.6 0 0 1 1.2 7.2 6 6 0 0 1-3 1.1h-8.6a11.1 11.1 0 0 1-3.4-.7l-2.3-2-.4-.4-.5-.5a8.2 8.2 0 0 1-1.7-4.4Z" style="fill:#37474f" transform="translate(-44.4 -.5)"/><path d="M131.6 48c-1.3-1-1.5-2.2-1.5-3.9a4 4 0 0 1 1.7-3c1-.7 2-.7 3.4-.7h5.3c2 0 2.3-.6 2.3-2.5V28c0-1.7 0-2.5 1.2-3.8a4.3 4.3 0 0 1 6.2.2 5.4 5.4 0 0 1 1.2 3.6v11.4c0 5.7-3.8 9.5-9.3 9.5h-7c-1.6 0-2.7-.2-3.5-1Zm-26.3-14.3c1.1-2.1 2.8-2.1 4.9-2.1h5.3c.8 0 1.1 0 1.5-.6.4-.3.4-.7.4-1.5v-9.8c0-2.1 0-2.7 1-3.8a4.2 4.2 0 0 1 6.4-.2 4.7 4.7 0 0 1 1.2 3v12.9c0 4.7-4 8.7-8 8.7h-9.1l-1.7-.3a4.3 4.3 0 0 1-2.5-4.4Zm52.1 11.2c3.8 1.9 2.7 8.3-1.9 8.3a4.3 4.3 0 0 1-4.3-4.5 4.5 4.5 0 0 1 6.2-3.8ZM144 17.4a4 4 0 0 1-1.1-3.2A4.2 4.2 0 0 1 147 10a4.3 4.3 0 0 1 4.2 4.4 4.2 4.2 0 0 1-7.2 3Z" style="fill:#37474f;fill-rule:evenodd" transform="translate(-44.4 -.5)"/><path d="M170.8 25.6a11.7 11.7 0 0 1 1 4.6 7.7 7.7 0 0 1-2.3 6 11.2 11.2 0 0 1-6.6 2.5h-.5v-.4l-.6-2-.1-.6h.5a9 9 0 0 0 5-1.7 4.4 4.4 0 0 0 1.5-3.7 8.8 8.8 0 0 0-.9-3.7l-.2-.4.5-.2 2.1-.7.4-.2Zm-4.2-4.7 1.8-1.9.2-.2.2.2 1.8 1.9.2.2-.2.2-1.8 1.8-.2.2-.2-.2-1.8-1.9-.2-.1ZM174.5 15.2h2.6v17.5H174V15.2ZM196.2 32.7c-3.3 0-5.8-.5-7.6-1.6a5.3 5.3 0 0 1-2.6-4.8 8 8 0 0 1 .7-3.3l.2-.5.5.2 1.9.9.4.2-.1.4a4.8 4.8 0 0 0-.3 1 4.4 4.4 0 0 0-.1.8 2.8 2.8 0 0 0 .1.9 2.6 2.6 0 0 0 .4.7 2.8 2.8 0 0 0 .7.7 4.4 4.4 0 0 0 .9.5 9.1 9.1 0 0 0 1.3.4 12.6 12.6 0 0 0 1.6.2l1.9.1a25.7 25.7 0 0 0 5-.4 5 5 0 0 0 2.5-1 1.2 1.2 0 0 0 .2-.4 3 3 0 0 0 .1-.7v-.3a1.6 1.6 0 0 0 0-.2v-1.7h.4l2-.3h.5v.5l.2 2.6a2.5 2.5 0 0 0 .5 1.5 1.1 1.1 0 0 0 .5.3 2.4 2.4 0 0 0 .8.1h.2a.6.6 0 0 1 .2 0 .6.6 0 0 1 .2.2.5.5 0 0 1 .2.1V32a.8.8 0 0 1 0 .3 1.7 1.7 0 0 1-.1.2.6.6 0 0 1-.2.2 1 1 0 0 1-.3 0h-.2a4.9 4.9 0 0 1-2.2-.5 4 4 0 0 1-1.6-1.4q-2.4 1.9-8.8 1.9ZM192.9 21l1.7-1.7.2-.2.2.2 1.8 1.8 1.8-1.8.2-.2.2.2 1.8 1.8.1.1-.1.2-1.8 1.8-.2.2-.2-.2-1.8-1.8-1.8 1.8-.1.2-.3-.2-1.8-1.8-.2-.2Z" class="cls-4"/><path d="M214.3 28.2a5 5 0 0 1-3.3-1 3.5 3.5 0 0 1-1.2-2.8V23.2a8 8 0 0 1 .7-1.8 4.8 4.8 0 0 1 1-1.4 3.8 3.8 0 0 1 2.8-1.2 4 4 0 0 1 1.1.2 3.8 3.8 0 0 1 1 .4q2.3 1.5 2.7 5.5v1.5c0 2.5-.5 4.2-1.8 5.1-1 .8-2.8 1.2-5.4 1.2h-3a1 1 0 0 1-1-.5 2 2 0 0 1-.3-1v-.3a1.6 1.6 0 0 1 .3-1 1 1 0 0 1 1-.4h3.1a8.5 8.5 0 0 0 3-.4 1.9 1.9 0 0 0 1.2-1.1l-.6.1h-.6Zm-2.3-13 1.8-1.7.2-.2.2.2 1.8 1.8.1.2-.1.1-1.8 1.8-.2.2-.2-.2-1.8-1.8-.1-.1Zm.8 8.8a1 1 0 0 0 .4.8 2.4 2.4 0 0 0 1.3.3 6.6 6.6 0 0 0 .8 0l.7-.2a10 10 0 0 0-.2-1 6.6 6.6 0 0 0-.3-.8 2.9 2.9 0 0 0-.3-.6 1.9 1.9 0 0 0-.3-.3.9.9 0 0 0-.3-.1 1 1 0 0 0-.4 0 1.1 1.1 0 0 0-.7.2 2.4 2.4 0 0 0-.6 1v.8ZM227.6 31.2a4.3 4.3 0 0 1 0 1 .7.7 0 0 1-.7.5h-.3a5 5 0 0 1-3.9-1.5 6.3 6.3 0 0 1-1.3-4.3V15.2h3v11.7a3.1 3.1 0 0 0 .6 2 2 2 0 0 0 1.6.6h.2a.5.5 0 0 1 .3 0 1 1 0 0 1 .2.1.6.6 0 0 1 .1.2 1 1 0 0 1 .1.2 2.2 2.2 0 0 1 0 .3v.8Z" class="cls-4"/><path d="M227.6 32.7h-1a1 1 0 0 1-.8-.4 2 2 0 0 1-.3-1.1v-.3a1.7 1.7 0 0 1 .3-1 1 1 0 0 1 .9-.4h1a5.7 5.7 0 0 0 2.3-.3c.5-.3.8-1 .8-2.1a13.4 13.4 0 0 0-.4-3.1l-.1-.5.4-.1 2-.5.5-.1.1.4a13.3 13.3 0 0 1 .6 3.8c0 2.2-.6 3.8-1.9 4.7a4 4 0 0 1-.8.5 5 5 0 0 1-1 .3 10.3 10.3 0 0 1-1.2.2h-1.4Zm-1.3 3.7 1.8-1.8.2-.1.1.1 1.8 1.8 1.8-1.8.2-.1.2.1 1.8 1.8.2.2-.2.2-1.8 1.8-.2.2-.2-.2-1.8-1.8-1.7 1.8-.2.1-.2-.1-1.8-1.8-.2-.2ZM244.2 25.6a11.7 11.7 0 0 1 1 4.6 7.7 7.7 0 0 1-2.3 6 11.2 11.2 0 0 1-6.7 2.5h-.4v-.4l-.6-2-.1-.6h.5a9 9 0 0 0 5-1.7 4.5 4.5 0 0 0 1.5-3.7 8.8 8.8 0 0 0-1-3.7l-.1-.4.5-.2 2-.7.5-.2ZM247.2 29.2a14.5 14.5 0 0 0 2.9.3c2.7 0 4-.6 4-1.7a3.9 3.9 0 0 0-1.2-2.5 16.9 16.9 0 0 0-3.7-2.8l-.4-.3.3-.4 1.2-1.9.3-.4.4.3q6.3 3.7 6.3 8a5 5 0 0 1-.3 1.7 4.1 4.1 0 0 1-1 1.5 5 5 0 0 1-1.3 1 8.3 8.3 0 0 1-2 .5 14 14 0 0 1-2.5.2 15 15 0 0 1-3.2-.3h-.4V29Z" class="cls-4"/></svg>