<svg xmlns="http://www.w3.org/2000/svg" id="Layer_1" data-name="Layer 1" viewBox="0 0 344.7 55"><defs><linearGradient id="linear-gradient" x1="30.6" x2="-11.8" y1="35.6" y2="24.4" gradientTransform="matrix(1 0 0 -1 0 56.1)" gradientUnits="userSpaceOnUse"><stop offset="0" stop-color="#4696d2"/><stop offset="0" stop-color="#4598d3"/><stop offset=".3" stop-color="#3fb9eb"/><stop offset=".5" stop-color="#4ac1ed"/><stop offset=".8" stop-color="#5cc4e6"/><stop offset="1" stop-color="#60c4e5"/></linearGradient><linearGradient id="linear-gradient-2" x1="51.9" x2=".1" y1="27.9" y2="27.9" gradientTransform="matrix(1 0 0 -1 0 56.1)" gradientUnits="userSpaceOnUse"><stop offset="0" stop-color="#ffe00a"/><stop offset=".4" stop-color="#fbbc0f"/><stop offset=".8" stop-color="#f7a418"/><stop offset="1" stop-color="#f59a1b"/></linearGradient><linearGradient id="linear-gradient-3" x1="28.8" x2="-5.1" y1="25.3" y2="-31.9" gradientTransform="matrix(1 0 0 -1 0 56.1)" gradientUnits="userSpaceOnUse"><stop offset="0" stop-color="#e8404a"/><stop offset="1" stop-color="#c31262"/></linearGradient><linearGradient id="linear-gradient-4" x1="2.9" x2="17.9" y1="74.8" y2="49.1" gradientTransform="matrix(1 0 0 -1 0 56.1)" gradientUnits="userSpaceOnUse"><stop offset="0" stop-color="#32a071"/><stop offset=".1" stop-color="#2da771"/><stop offset=".5" stop-color="#4fb26f"/><stop offset=".8" stop-color="#61b668"/><stop offset="1" stop-color="#64b664"/></linearGradient><style>.cls-9{fill:#757575}</style></defs><path d="M64.2 27.3A13.4 13.4 0 0 1 77.6 14a12.8 12.8 0 0 1 9 3.7L84 20.3a9.4 9.4 0 0 0-16 7 9.6 9.6 0 0 0 9.6 9.6 8.9 8.9 0 0 0 6.6-2.6 9 9 0 0 0 2-4.6h-8.6V26h12l.2 2.2a11.7 11.7 0 0 1-12.2 12.2 13.4 13.4 0 0 1-13.4-13.2Zm35.5-3.8a8.4 8.4 0 0 0-8.4 8.4 8.5 8.5 0 1 0 17 0 8.5 8.5 0 0 0-8.6-8.4Zm0 13.6a4.9 4.9 0 0 1-4.8-5.2 4.8 4.8 0 1 1 9.6 0 4.9 4.9 0 0 1-4.8 5.2Zm18.6-13.6a8.4 8.4 0 0 0-8.6 8.2 1.5 1.5 0 0 0 0 .2 8.6 8.6 0 0 0 8.6 8.6 8.5 8.5 0 0 0 0-17Zm0 13.6c-2.6 0-4.8-2-4.8-5.2a4.8 4.8 0 1 1 9.7 0 4.9 4.9 0 0 1-4.9 5.2Zm23-13v1.2a6 6 0 0 0-4.7-2c-4.2 0-8 4-8 8.9a8.4 8.4 0 0 0 8 8.4 5.8 5.8 0 0 0 4.4-2v1.2c0 3.4-1.6 5-4.4 5a4.7 4.7 0 0 1-4.2-3l-3.2 1.4a8 8 0 0 0 7.2 5c4.4 0 8-2.6 8-8.8V24h-3.2Zm-4.5 13a4.8 4.8 0 0 1-4.6-5c0-3 2-5.2 4.6-5.2s4.6 2 4.6 5.2a4.8 4.8 0 0 1-4.6 5Zm10.4-22h3.9v24.8h-3.9Zm14 22a4 4 0 0 1-4-2.6l11.3-4.4-.4-1c-.8-2-2.8-5.4-7.2-5.4s-8 3.4-8 8.4a8.4 8.4 0 0 0 8.4 8.6 8.2 8.2 0 0 0 7-3.8l-2.8-2a5.2 5.2 0 0 1-4.2 2.4Zm-.4-10.4a3.2 3.2 0 0 1 3.2 2l-7.6 2.8a4.9 4.9 0 0 1 4.4-5ZM185.5 14h-9v26h3.8v-9.8h5.3a8 8 0 0 0 8.4-7.6v-.4a8.1 8.1 0 0 0-8.2-8.3Zm.2 12.6h-5.4v-9h5.4a4.5 4.5 0 0 1 0 9Zm14 13.4v-26h-3.5v26h3.6Zm17.3 0v-10c0-4.6-3.4-7.2-7.9-7.2-2.6 0-5.6 1.2-6.8 4l3.4 1.4a4.1 4.1 0 0 1 7.7 1.6 13.8 13.8 0 0 0-4-.8c-3.6 0-7.5 2-7.5 6 0 3.4 3 5.6 6.5 5.6a5.1 5.1 0 0 0 4.8-2.6v2Zm-8-2.8c-1.4 0-3.2-.8-3.2-2.2 0-2 2.2-2.8 4-2.8a6 6 0 0 1 3.6.8 4.5 4.5 0 0 1-4.6 4Zm21.4-13.8L226 34.9l-4.6-11.4h-4l6.6 15.8-4 8.9h4l10.7-24.7Z" style="fill-rule:evenodd;fill:#37474f" transform="translate(-1 -.6)"/><path d="M2 1.4a5 5 0 0 0-1 3v47.4a5 5 0 0 0 1 3l26.6-26.5v-.6L2 1.4Z" style="fill:url(#linear-gradient);fill-rule:evenodd" transform="translate(-1 -.6)"/><path d="m37.5 37.3-8.9-8.8v-.6l8.9-8.8L48 25c3 1.6 3 4.4 0 6l-10.4 6h-.2Z" style="fill:url(#linear-gradient-2);fill-rule:evenodd" transform="translate(-1 -.6)"/><path d="m37.7 37.1-9-9L1.9 54.8c1 1 2.7 1.2 4.5 0Z" style="fill:url(#linear-gradient-3);fill-rule:evenodd" transform="translate(-1 -.6)"/><path d="M37.7 19 6.3 1.5C4.7.4 3 .4 2 1.4l26.7 26.7Z" style="fill:url(#linear-gradient-4);fill-rule:evenodd" transform="translate(-1 -.6)"/><path d="M37.5 37 6.4 54.5c-1.8 1-3.3.8-4.3 0H2v.2c1.2 1 2.7 1 4.5 0L37.7 37h-.2Z" style="opacity:.2;isolation:isolate;fill:#010101;fill-rule:evenodd" transform="translate(-1 -.6)"/><path d="m48 30.9-10.7 6 .2.2 10.4-6c1.6-.8 2.4-2 2.4-3 0 1-1 2-2.2 2.8Z" style="opacity:.1;isolation:isolate;fill:#010101;fill-rule:evenodd" transform="translate(-1 -.6)"/><path d="m6.3 1.6 41.8 23.7a3.8 3.8 0 0 1 2 2.8 3.6 3.6 0 0 0-2-3L6.3 1.4C3.4-.4 1 1 1 4.4v.4C1 1.4 3.3 0 6.3 1.6Z" style="fill:#fff;opacity:.3;isolation:isolate;fill-rule:evenodd" transform="translate(-1 -.6)"/><path d="M258.2 25.4a11.7 11.7 0 0 1 1.1 4.7 7.6 7.6 0 0 1-2.2 5.9 11.2 11.2 0 0 1-6.7 2.6h-.4l-.1-.4-.6-2-.1-.6.6-.1a9 9 0 0 0 4.9-1.6 4.4 4.4 0 0 0 1.5-3.7 8.8 8.8 0 0 0-.9-3.7l-.2-.4.5-.2 2-.7.5-.2Zm-4.1-4.6 1.8-1.9.2-.2.2.2 1.8 1.9.2.2-.2.2-1.8 1.8-.2.2-.2-.2-1.8-1.9-.2-.2ZM262 15h2.6v17.6h-3.1V15.1ZM283.6 32.6q-5 0-7.5-1.6a5.3 5.3 0 0 1-2.6-4.8 8 8 0 0 1 .7-3.3l.2-.5.4.2 2 .8.4.2-.2.5a5.6 5.6 0 0 0-.3.9 4.4 4.4 0 0 0 0 .9 3.2 3.2 0 0 0 0 .9 2.6 2.6 0 0 0 .5.7 2.7 2.7 0 0 0 .6.7 4.3 4.3 0 0 0 1 .5 8.6 8.6 0 0 0 1.3.4 12.9 12.9 0 0 0 1.6.2l2 .1a25.6 25.6 0 0 0 5-.4 5 5 0 0 0 2.4-1 1 1 0 0 0 .2-.4 3 3 0 0 0 .1-.8v-.2a1.6 1.6 0 0 0 0-.2v-1.7h.4l2-.3h.5v.5l.2 2.6a2.6 2.6 0 0 0 .5 1.5 1.1 1.1 0 0 0 .5.3 2.4 2.4 0 0 0 .8.1h.2a.6.6 0 0 1 .3 0 .7.7 0 0 1 .1.1.5.5 0 0 1 .2.2v.2a1.2 1.2 0 0 1 0 .3v1.6a1.1 1.1 0 0 1 0 .3 1.9 1.9 0 0 1-.1.3.5.5 0 0 1-.2.2 1 1 0 0 1-.3 0h-.2a4.9 4.9 0 0 1-2.2-.5 4 4 0 0 1-1.6-1.4q-2.4 1.9-8.8 1.9ZM280.3 21l1.8-1.7.2-.2.1.2 1.8 1.8 1.9-1.8.2-.2.1.2 1.8 1.8.2.1-.2.2-1.7 1.8-.2.2-.2-.2-1.8-1.8-1.8 1.8-.2.2-.2-.2-1.8-1.8-.1-.2Z" class="cls-9"/><path d="M301.8 28a5 5 0 0 1-3.3-1 3.5 3.5 0 0 1-1.2-2.7V23a8 8 0 0 1 .7-1.7 5 5 0 0 1 1-1.4 3.8 3.8 0 0 1 2.8-1.2 3.9 3.9 0 0 1 1.1.1 3.7 3.7 0 0 1 1 .5c1.5 1 2.4 2.8 2.7 5.4v1.6c0 2.5-.5 4.2-1.8 5q-1.6 1.3-5.4 1.3h-3.1a1 1 0 0 1-1-.5 2 2 0 0 1-.2-1.1v-.2a1.7 1.7 0 0 1 .3-1 1 1 0 0 1 .9-.4h3.2a8.6 8.6 0 0 0 3-.4 2 2 0 0 0 1.2-1.1h-.6a6.2 6.2 0 0 1-.7.1Zm-2.3-13 1.8-1.6.2-.2.1.2 1.8 1.8.2.2-.2.1-1.7 1.8-.2.2-.2-.2-1.8-1.8-.2-.1Zm.8 9a.9.9 0 0 0 .3.7 2.2 2.2 0 0 0 1.4.3 6.6 6.6 0 0 0 .7-.1l.8-.1-.2-1a8 8 0 0 0-.3-.9 2.8 2.8 0 0 0-.3-.4 1.9 1.9 0 0 0-.3-.4.9.9 0 0 0-.3-.1 1 1 0 0 0-.4 0 1 1 0 0 0-.8.2 2.3 2.3 0 0 0-.5 1 1.5 1.5 0 0 0 0 .3v.2a1.7 1.7 0 0 0-.1.3ZM315 31a4.8 4.8 0 0 1 0 1.1.7.7 0 0 1-.7.5h-.2a5 5 0 0 1-4-1.5 6.3 6.3 0 0 1-1.3-4.3V15.1h3.1v11.7a3 3 0 0 0 .6 2 2 2 0 0 0 1.6.6h.2a.6.6 0 0 1 .3 0l.2.1a.4.4 0 0 1 0 .2 1 1 0 0 1 .2.2 1 1 0 0 1 0 .2V31Z" class="cls-9"/><path d="M315 32.6h-.9a1 1 0 0 1-.9-.4 2 2 0 0 1-.2-1.1v-.3a1.6 1.6 0 0 1 .3-1 1 1 0 0 1 .8-.4h1a5.7 5.7 0 0 0 2.4-.3c.5-.3.8-1 .8-2.1a12.8 12.8 0 0 0-.5-3.2v-.4l.4-.1 2-.5.4-.2.2.5a13 13 0 0 1 .6 3.8q0 3.3-2 4.7a4.2 4.2 0 0 1-.7.5 4.8 4.8 0 0 1-1 .3 10.3 10.3 0 0 1-1.2.2H315Zm-1.2 3.7 1.7-1.8.2-.2.2.2 1.8 1.8 1.8-1.8.2-.1.1.1 1.8 1.8.2.2-.2.2-1.7 1.8-.2.1-.2-.1-1.8-1.8-1.8 1.8-.1.1-.2-.1-1.8-1.8-.2-.2ZM331.6 25.4a11.7 11.7 0 0 1 1 4.7 7.7 7.7 0 0 1-2.2 5.9 11.2 11.2 0 0 1-6.7 2.6h-.4l-.1-.4-.5-2-.2-.6.6-.1a9 9 0 0 0 4.9-1.6 4.4 4.4 0 0 0 1.6-3.7 8.6 8.6 0 0 0-1-3.7l-.2-.5.5-.1 2.1-.8.4-.1ZM334.7 29a14.4 14.4 0 0 0 2.8.4c2.7 0 4-.6 4-1.7a3.9 3.9 0 0 0-1.2-2.5 17 17 0 0 0-3.6-2.9l-.4-.2.3-.4 1.2-1.9.3-.4.4.2q6.2 3.8 6.2 8a5 5 0 0 1-.3 1.8 4 4 0 0 1-.9 1.4 5.1 5.1 0 0 1-1.4 1 8.2 8.2 0 0 1-2 .6 14 14 0 0 1-2.4.2 15 15 0 0 1-3.3-.3h-.3V29Z" class="cls-9"/></svg>