<svg xmlns="http://www.w3.org/2000/svg" id="Layer_1" data-name="Layer 1" viewBox="0 0 252.2 61.7"><defs><style>.cls-2{fill:#757575}</style></defs><text style="font-size:50px;fill:#1d1d1b;font-family:Arial-BoldMT,Arial;font-weight:700" transform="translate(0 42.9)">iOS</text><path d="M116.3 25q0-3.9 6.2-6v-.5l.4-.1 2-.5h.5v.5l1 7.2a1.9 1.9 0 0 0 .6 1.2 1.8 1.8 0 0 0 1.3.4h.2a.8.8 0 0 1 .2 0h.2a.7.7 0 0 1 .1.1l.1.2a.4.4 0 0 1 0 .2v.1a1 1 0 0 1 0 .2v1a1.4 1.4 0 0 1 0 .3v.3a1 1 0 0 1 0 .3 1.9 1.9 0 0 1-.1.2.5.5 0 0 1-.2.2 1 1 0 0 1-.3 0h-.3a5.3 5.3 0 0 1-2.7-.6 3.5 3.5 0 0 1-1.5-1.8 5.2 5.2 0 0 1-3 .9 4.5 4.5 0 0 1-4.3-2 3.5 3.5 0 0 1-.3-1 3.8 3.8 0 0 1-.1-.9Zm6.7-3a16 16 0 0 0-1.7.8 7.5 7.5 0 0 0-1 .8 3 3 0 0 0-.7.6 1 1 0 0 0-.2.6 1 1 0 0 0 .3.7 2 2 0 0 0 1.2.3 3.1 3.1 0 0 0 1.6-.5 1.6 1.6 0 0 0 .7-.7 2.2 2.2 0 0 0 0-1.2Z" class="cls-2"/><path d="m138.7 24.1-.7-.3-1-.3a11 11 0 0 0-3-1 2.3 2.3 0 0 0-1.9 1l-.3.5-.3.3-.3-.2-1.9-.9-.5-.2.3-.5.2-.3a5.8 5.8 0 0 1 2-2 5.3 5.3 0 0 1 2.7-.8 9.1 9.1 0 0 1 4 1.1 16.4 16.4 0 0 0 5.6 2h.5v3h-.5a6 6 0 0 0-2 .6 1.3 1.3 0 0 0 .9.7 5.6 5.6 0 0 0 2 .3h.5a.8.8 0 0 1 .2 0 .3.3 0 0 1 .2.1l.1.1a.4.4 0 0 1 .1.2 1.3 1.3 0 0 1 0 .2 1 1 0 0 1 0 .2 1.6 1.6 0 0 0 0 .2v1.1a1.9 1.9 0 0 1 0 .3 1 1 0 0 1 0 .3l-.1.3a.5.5 0 0 1-.2.1 1 1 0 0 1-.3 0h-.8a8.7 8.7 0 0 1-2.4-.3 4.2 4.2 0 0 1-1.8-1 3.6 3.6 0 0 1-1-1.7h-.1l-.2.2h-.1a21.2 21.2 0 0 1-9.8 2.9h-.6a1 1 0 0 1-.9-.5 2 2 0 0 1-.3-1.1v-.2a1.7 1.7 0 0 1 .4-1 1 1 0 0 1 .8-.4h.8q4 0 9.7-3ZM133 15l1.8-1.7.2-.2.2.2L137 15l.1.2-.1.2-1.8 1.7-.2.2-.2-.2-1.8-1.8-.2-.2Z" class="cls-2"/><path d="M157.8 25.7a2.1 2.1 0 0 0 .2.8 1 1 0 0 0 .5.5 2 2 0 0 0 .8.1 1.2 1.2 0 0 0 1-.4 2.7 2.7 0 0 0 .3-1.5v-1.6l-.2-.7v-.5h.5l2-.3h.5v.5l.2 2.3a4.8 4.8 0 0 0 .2 1 2 2 0 0 0 .4.8 1.3 1.3 0 0 0 .5.3 1.9 1.9 0 0 0 .7.1h.2a.6.6 0 0 1 .3 0 .9.9 0 0 1 .2.2.4.4 0 0 1 .1.1 1 1 0 0 1 .1.3 2.2 2.2 0 0 1 0 .2v.9a8.1 8.1 0 0 1 0 .9.7.7 0 0 1-.6.6h-.2a3.5 3.5 0 0 1-3.2-1.2 3.4 3.4 0 0 1-1.3 1 4.5 4.5 0 0 1-1.7.3 4.4 4.4 0 0 1-1.8-.3 3.3 3.3 0 0 1-1.3-1 4.5 4.5 0 0 1-3.4 1.3 4 4 0 0 1-3.4-1.4 5 5 0 0 1-3.9 1.4h-.7a1 1 0 0 1-.9-.5 2 2 0 0 1-.3-1v-.3a1.6 1.6 0 0 1 .3-1 1 1 0 0 1 .9-.5h.7c1.4 0 2.2-.4 2.4-1.4a4.4 4.4 0 0 0 0-.7v-2.3h.4l2-.3h.5v.4l.2 2.9a1.5 1.5 0 0 0 .5 1 2 2 0 0 0 1.3.4 3.2 3.2 0 0 0 .7 0 1.4 1.4 0 0 0 .6-.3 1.7 1.7 0 0 0 .3-.4 2.3 2.3 0 0 0 .2-.7 4.4 4.4 0 0 0 0-.7v-2.3h.4l2-.3h.5v.4Z" class="cls-2"/><path d="M166.3 30.4h-.9a1 1 0 0 1-.9-.5 2 2 0 0 1-.3-1v-.3a1.6 1.6 0 0 1 .3-1 1 1 0 0 1 1-.4h.8a5.7 5.7 0 0 0 2.4-.4c.6-.3.8-1 .8-2a13.3 13.3 0 0 0-.4-3.2l-.1-.5h.5l2-.6.4-.1.1.4a13.3 13.3 0 0 1 .7 3.9 5.5 5.5 0 0 1-2 4.7 4 4 0 0 1-.8.4 5 5 0 0 1-1 .3 10 10 0 0 1-1.2.2h-1.4Zm1.2-13.7 1.8-1.8.2-.2.1.2 1.8 1.8.2.2-.2.2-1.8 1.7-.1.2-.2-.2-1.8-1.8-.2-.1ZM191 30.4c-3.2 0-5.7-.6-7.5-1.6a5.3 5.3 0 0 1-2.6-4.9 8 8 0 0 1 .7-3.3l.2-.5.5.2 1.9.9.4.2-.2.4a4.7 4.7 0 0 0-.2 1 3.8 3.8 0 0 0-.1.8 3.2 3.2 0 0 0 0 .9 2.9 2.9 0 0 0 .5.8 2.9 2.9 0 0 0 .6.6 4.3 4.3 0 0 0 1 .5 8.6 8.6 0 0 0 1.3.4 12.9 12.9 0 0 0 1.6.2l2 .1a25.6 25.6 0 0 0 5-.4 4.9 4.9 0 0 0 2.5-1 1 1 0 0 0 .2-.4 2.6 2.6 0 0 0 0-.7V24a1 1 0 0 1 0-.2v-1.5h.5l2-.3h.5v.5l.2 2.6a2.6 2.6 0 0 0 .5 1.5 1.2 1.2 0 0 0 .5.3 2.4 2.4 0 0 0 .8.1h.1a.6.6 0 0 1 .3 0 .8.8 0 0 1 .2.2.5.5 0 0 1 .1.1l.1.3a1.2 1.2 0 0 1 0 .2v1.7a1.7 1.7 0 0 1 0 .3 1.9 1.9 0 0 1-.2.2.5.5 0 0 1-.2.2 1 1 0 0 1-.3 0h-.2a4.8 4.8 0 0 1-2.1-.5 3.9 3.9 0 0 1-1.6-1.4c-1.6 1.2-4.6 1.9-8.8 1.9Zm-3.2-11.7 1.8-1.8.2-.2.1.2 1.8 1.8 1.8-1.8.2-.2.2.2 1.8 1.8.1.2-.1.2-1.8 1.7-.2.2-.2-.2-1.8-1.8-1.7 1.8-.2.2-.2-.2-1.8-1.8-.2-.1Z" class="cls-2"/><path d="M209.2 25.8a5 5 0 0 1-3.3-1 3.5 3.5 0 0 1-1.2-2.8v-.7l.1-.4a8 8 0 0 1 .6-1.8 5 5 0 0 1 1-1.4 3.8 3.8 0 0 1 2.9-1.2 3.9 3.9 0 0 1 1 .2 3.7 3.7 0 0 1 1 .4c1.6 1 2.5 2.8 2.8 5.5V24c0 2.5-.6 4.2-1.8 5.1q-1.6 1.2-5.5 1.2h-3.1a1 1 0 0 1-.9-.4 2 2 0 0 1-.3-1.1v-.3a1.6 1.6 0 0 1 .3-1 1 1 0 0 1 .9-.4h3.2a8.6 8.6 0 0 0 3-.4 2 2 0 0 0 1.2-1h-.6a6.2 6.2 0 0 1-.6 0Zm-2.3-13 1.8-1.7.2-.1.2.1 1.8 1.8.2.2-.2.2L209 15l-.2.1-.2-.1-1.8-1.8-.1-.2Zm.8 8.9a.9.9 0 0 0 .4.8 2.2 2.2 0 0 0 1.3.2 6.5 6.5 0 0 0 .8 0l.7-.2-.2-1a5 5 0 0 0-.3-.8 2.8 2.8 0 0 0-.3-.5 1.9 1.9 0 0 0-.3-.3 1 1 0 0 0-.3-.2 1.1 1.1 0 0 0-.4 0 1 1 0 0 0-.7.3 2.2 2.2 0 0 0-.6 1 1.4 1.4 0 0 0 0 .2v.3a1.7 1.7 0 0 0 0 .2Zm14.8 7.1a5 5 0 0 1 0 1 .7.7 0 0 1-.7.6h-.3a5 5 0 0 1-3.9-1.5 6.3 6.3 0 0 1-1.3-4.3V12.8h3v11.8a3.1 3.1 0 0 0 .6 2 2 2 0 0 0 1.6.6h.3a.6.6 0 0 1 .3 0h.2a.4.4 0 0 1 0 .3l.2.2v1.1Z" class="cls-2"/><path d="M222.5 30.4h-1a1 1 0 0 1-.8-.5 2 2 0 0 1-.3-1v-.3a1.6 1.6 0 0 1 .3-1 1 1 0 0 1 .9-.4h1a5.7 5.7 0 0 0 2.3-.4c.5-.3.8-1 .8-2a12.8 12.8 0 0 0-.4-3.2l-.1-.5h.4l2-.6.5-.1.1.4a13 13 0 0 1 .6 3.9q0 3.2-1.9 4.7a3.9 3.9 0 0 1-.8.4 4.8 4.8 0 0 1-1 .3 10.3 10.3 0 0 1-1.2.2h-1.4Zm-1.3 3.7 1.8-1.8.2-.2.2.2 1.8 1.8 1.7-1.8.2-.2.2.2L229 34l.2.2-.2.1-1.8 1.8-.2.2-.2-.2-1.8-1.8-1.7 1.8-.2.2-.2-.2-1.8-1.8-.2-.2ZM239 23.2a11.7 11.7 0 0 1 1.1 4.7 7.7 7.7 0 0 1-2.3 5.9 11.2 11.2 0 0 1-6.7 2.6h-.4l-.1-.5-.5-2-.2-.6h.6a9 9 0 0 0 4.9-1.7A4.4 4.4 0 0 0 237 28a8.8 8.8 0 0 0-1-3.7l-.2-.5.5-.2 2.1-.7.4-.2Zm3.1 3.6a14.4 14.4 0 0 0 2.9.3c2.7 0 4-.5 4-1.7a3.9 3.9 0 0 0-1.2-2.4 16.6 16.6 0 0 0-3.7-3l-.4-.2.3-.4 1.2-1.8.3-.4.4.2q6.2 3.8 6.2 8a5 5 0 0 1-.3 1.8 4 4 0 0 1-.9 1.4 5 5 0 0 1-1.4 1 8 8 0 0 1-2 .6 14 14 0 0 1-2.4.2 15 15 0 0 1-3.2-.3h-.4v-3.4Z" class="cls-2"/></svg>