<svg xmlns="http://www.w3.org/2000/svg" id="Layer_1" data-name="Layer 1" viewBox="0 0 302.6 55"><defs><style>.cls-1{fill:#757575}.cls-2{fill:#348aca}.cls-3{fill:#fff}</style></defs><path d="M216 25.3a11.8 11.8 0 0 1 1.1 4.7A7.6 7.6 0 0 1 215 36a11.2 11.2 0 0 1-6.7 2.6h-.4l-.1-.4-.6-2.1v-.6h.5a9 9 0 0 0 4.9-1.7 4.4 4.4 0 0 0 1.5-3.6 8.8 8.8 0 0 0-.9-3.7l-.2-.4.5-.2 2-.7.5-.2Zm-4.1-4.7 1.8-1.8.2-.2.2.2 1.8 1.9.2.2-.2.1-1.8 1.9-.2.2-.2-.2L212 21l-.2-.2ZM219.8 15h2.6v17.5h-3.1V14.9ZM241.5 32.5c-3.3 0-5.8-.5-7.6-1.6a5.3 5.3 0 0 1-2.6-4.8 8 8 0 0 1 .7-3.4l.2-.4.5.2 1.9.8.4.2-.1.5a4.7 4.7 0 0 0-.3.9 3.8 3.8 0 0 0-.1.9 3.1 3.1 0 0 0 .1.8 2.9 2.9 0 0 0 .4.8 2.7 2.7 0 0 0 .6.7 4.3 4.3 0 0 0 1 .5 8.6 8.6 0 0 0 1.3.4 12.9 12.9 0 0 0 1.6.2h2a25.6 25.6 0 0 0 5-.3 5 5 0 0 0 2.5-1 1 1 0 0 0 .2-.4 3 3 0 0 0 0-.8v-.4a1 1 0 0 1 0-.2v-1.5h.4l2-.3h.5v.5l.2 2.6a2.6 2.6 0 0 0 .5 1.4 1.1 1.1 0 0 0 .5.4 2.4 2.4 0 0 0 .9.1h.1a.6.6 0 0 1 .3 0 .6.6 0 0 1 .2.1.4.4 0 0 1 .1.2l.1.2a1.2 1.2 0 0 1 0 .3v1.6a1.7 1.7 0 0 1 0 .3 1.9 1.9 0 0 1-.2.3.5.5 0 0 1-.2.1 1 1 0 0 1-.3 0h-.2a4.8 4.8 0 0 1-2.2-.4 3.9 3.9 0 0 1-1.6-1.4c-1.6 1.2-4.5 1.8-8.8 1.8Zm-3.3-11.7 1.7-1.8.2-.1.2.1 1.8 1.8 1.8-1.8.2-.1.1.1 1.8 1.8.2.2-.2.2-1.7 1.8-.2.1-.2-.1-1.8-1.8-1.8 1.8-.2.1-.1-.2-1.8-1.7-.2-.2Z" class="cls-1"/><path d="M259.6 28a5 5 0 0 1-3.3-1 3.5 3.5 0 0 1-1.2-2.9v-.7l.1-.4a8 8 0 0 1 .6-1.8 5 5 0 0 1 1-1.4 3.8 3.8 0 0 1 2.8-1.2 3.9 3.9 0 0 1 1 .1 3.7 3.7 0 0 1 1 .5q2.3 1.4 2.8 5.4v1.6c0 2.5-.6 4.2-1.8 5q-1.6 1.3-5.5 1.3h-3a1 1 0 0 1-1-.5 2 2 0 0 1-.2-1v-.3a1.6 1.6 0 0 1 .3-1 1 1 0 0 1 .9-.4h3.2a8.6 8.6 0 0 0 3-.4 2 2 0 0 0 1.2-1.1h-.6a6.2 6.2 0 0 1-.7.1Zm-2.3-13 1.8-1.7.2-.2.2.2 1.8 1.8.2.1-.2.2-1.8 1.8-.2.2-.2-.2-1.8-1.8-.1-.2Zm.8 8.8a1 1 0 0 0 .4.8 2.3 2.3 0 0 0 1.3.2 6.5 6.5 0 0 0 .7 0l.8-.2a10 10 0 0 0-.2-1 4.5 4.5 0 0 0-.3-.8 2.9 2.9 0 0 0-.3-.5 1.9 1.9 0 0 0-.3-.3 1 1 0 0 0-.3-.2 1 1 0 0 0-.4 0 1.1 1.1 0 0 0-.7.3 2.2 2.2 0 0 0-.6 1 1.4 1.4 0 0 0 0 .2v.3a1.7 1.7 0 0 0 0 .2ZM272.9 31a4.3 4.3 0 0 1 0 1 .7.7 0 0 1-.8.5h-.2a5 5 0 0 1-4-1.5 6.3 6.3 0 0 1-1.2-4.3V15h3v11.8a3.1 3.1 0 0 0 .6 2 2 2 0 0 0 1.6.6h.2a.6.6 0 0 1 .3 0l.2.1a.4.4 0 0 1 .1.2l.1.2v1.1Z" class="cls-1"/><path d="M272.9 32.5h-1a1 1 0 0 1-.8-.5 2 2 0 0 1-.3-1v-.3a1.6 1.6 0 0 1 .3-1 1 1 0 0 1 .8-.4h1a5.7 5.7 0 0 0 2.4-.3c.5-.3.8-1 .8-2.2a12.8 12.8 0 0 0-.4-3l-.2-.5.5-.2 2-.5h.4l.2.4a13 13 0 0 1 .6 3.8q0 3.2-1.9 4.7a4.2 4.2 0 0 1-.8.5 4.8 4.8 0 0 1-1 .3 10.3 10.3 0 0 1-1.2.2h-1.4Zm-1.3 3.7 1.8-1.8.1-.2.2.2 1.8 1.8 1.8-1.8.2-.2.2.2 1.7 1.8.2.2-.2.2-1.7 1.7-.2.2-.2-.2-1.8-1.7-1.8 1.7-.1.2-.2-.2-1.8-1.8-.2-.1ZM289.4 25.3a11.7 11.7 0 0 1 1.1 4.7 7.7 7.7 0 0 1-2.3 5.9 11.2 11.2 0 0 1-6.7 2.6h-.4V38l-.6-2.1-.1-.6h.5a9 9 0 0 0 5-1.6 4.4 4.4 0 0 0 1.5-3.6 8.8 8.8 0 0 0-.9-3.7l-.2-.5.5-.2 2-.7.5-.2ZM292.5 29a14.4 14.4 0 0 0 2.9.3c2.7 0 4-.6 4-1.8a3.9 3.9 0 0 0-1.2-2.4 16.8 16.8 0 0 0-3.7-2.9l-.4-.3.3-.4 1.2-1.8.3-.4.4.2q6.2 3.8 6.2 8a5 5 0 0 1-.3 1.8 4 4 0 0 1-.8 1.4 5.1 5.1 0 0 1-1.5 1 8 8 0 0 1-2 .6 14 14 0 0 1-2.4.2 15 15 0 0 1-3.2-.3h-.4v-3.4Z" class="cls-1"/><path d="M79 28.1a3 3 0 0 0 2.3-.8 4.7 4.7 0 0 0 .4-.6 3.5 3.5 0 0 0 .5.6 3 3 0 0 0 2.1.9 2.9 2.9 0 0 0 2.2-1 3.1 3.1 0 0 0 0-4.3 3.1 3.1 0 0 0-4.3 0 1.8 1.8 0 0 0-.5.6 3.2 3.2 0 0 0-.4-.6 3 3 0 0 0-2.2-1 3 3 0 0 0-2.2 1 3 3 0 0 0 2.2 5.3Z" class="cls-2"/><path d="M142 22.9a2.2 2.2 0 0 0-1.7.8 2.7 2.7 0 0 0-.8 1.9 11.8 11.8 0 0 0 .4 2.3 11.7 11.7 0 0 1 .4 2.4c0 1.9-1.3 2.8-4 2.8h-3.1a9.8 9.8 0 0 1-6.9-3.1l-5-5.1-8.1-7.3a1.4 1.4 0 0 1-.6-1c0-.3.3-.6.7-.8a101.7 101.7 0 0 1 14.4-4.4c1.6-.3 2.3-1.2 2.3-2.5 0-1.8-1-2.6-3-2.6a6.8 6.8 0 0 0-1.2.1 59 59 0 0 0-16.5 5.8A5 5 0 0 0 107 17a5 5 0 0 0 .5 2.5 33 33 0 0 0 6 6c3 2.6 4.5 4.4 4.5 5.3 0 1.3-1.2 2-3.8 2.3h-8c-2.4 0-3.8-1-4.2-2.9l-.4-2a1.8 1.8 0 0 0-1.9-1.2c-.8 0-1.5.5-2 1.6a19.7 19.7 0 0 1-1.4 3c-1.6 2-5.9 3-12.7 3h-3.3c-4.7 0-7.9-.6-9.6-1.7a3.7 3.7 0 0 1-1.7-3.3 10.6 10.6 0 0 1 .2-2 10.4 10.4 0 0 0 .3-2 1.7 1.7 0 0 0-2-2c-1.2 0-2.2 1-2.9 3.2a16 16 0 0 0-.7 4.7q0 9.4 16 9.4c10.3 0 16.7-1.6 19-4.9 1 2.3 3.1 3.4 6.2 3.4h2a38 38 0 0 0 9.7-.9 7.3 7.3 0 0 0 5.4-5.5q4.5 6.4 11.2 6.4h2.4a9.4 9.4 0 0 0 7-2.7 9.8 9.8 0 0 0 2.6-7.2c.1-4.3-1-6.5-3.3-6.5ZM137.6 42.8a3 3 0 0 0-2.1.9 3.2 3.2 0 0 0-.9 1.3 3 3 0 0 0-.8-1.3 3 3 0 0 0-2.1-1 3.1 3.1 0 0 0-2.2 1 3 3 0 0 0-1 2.1 3.1 3.1 0 0 0 3.2 3.2 2.9 2.9 0 0 0 2.1-1 3.2 3.2 0 0 0 .8-1.3 3 3 0 0 0 .8 1.3 2.9 2.9 0 0 0 2.2 1 3.1 3.1 0 0 0 3-3.2 3 3 0 0 0-3-3ZM175.7 27.3a5.3 5.3 0 0 0-4.8-2.7c-1.7 0-3.4 1-5.1 2.8l-2.5 3.5A4.2 4.2 0 0 1 159 33h-.7c-2.9 0-4.3-1.7-4.3-5.2V9.7c0-2.5-.9-3.7-2.7-3.7a2.4 2.4 0 0 0-2.2 1.2 4.5 4.5 0 0 0-.6 2.5l.6 17.2a26 26 0 0 0 1.4 8.7c1.1 2.6 3.5 3.8 7.1 3.8h2a7 7 0 0 0 5.1-2 7.5 7.5 0 0 0 6 2.7 5.5 5.5 0 0 0 4.7-2.3 8 8 0 0 0 1.6-5 9.7 9.7 0 0 0-1.4-5.5Zm-5 7.6a4.7 4.7 0 0 1-2-.5c-.8-.4-1.2-.9-1.2-1.4a2.6 2.6 0 0 1 1-2 3.3 3.3 0 0 1 2-1 2 2 0 0 1 1.7 1 3.6 3.6 0 0 1 .6 2c0 1.3-.7 1.9-2.1 1.9Z" class="cls-2"/><circle cx="27.5" cy="27.5" r="27.5" class="cls-2"/><path d="M44.4 24.3a9.8 9.8 0 0 0-17.1-6A9.8 9.8 0 0 0 10.2 24v11.4a2.5 2.5 0 0 0 2.4 2.4h.1a2.5 2.5 0 0 0 2.5-2.4V24.7a4.8 4.8 0 0 1 9.7 0v9a2.5 2.5 0 0 0 2.4 2.5 2.5 2.5 0 0 0 2.5-2.5v-9a4.8 4.8 0 1 1 9.7 0v10.7a2.4 2.4 0 0 0 2.5 2.4 2.4 2.4 0 0 0 2.4-2.4v-11a.8.8 0 0 1 0-.1ZM35.1 38.8c-.1-.2-.5.2-.5.2-1.3 1.4-4.1 2.4-7 2.4s-5.7-1-7.1-2.4c0 0-.4-.4-.5-.2s0 .5 0 .5a8.6 8.6 0 0 0 7.6 3.6 8.7 8.7 0 0 0 7.4-3.6s.3-.3.1-.5Z" class="cls-3"/></svg>